<?xml version="1.0" encoding="utf-8"?>
<!-- Generator: Adobe Illustrator 23.0.0, SVG Export Plug-In . SVG Version: 6.00 Build 0)  -->
<svg version="1.1" xmlns="http://www.w3.org/2000/svg" xmlns:xlink="http://www.w3.org/1999/xlink" x="0px" y="0px"
	 viewBox="0 0 750 500" style="enable-background:new 0 0 750 500;" xml:space="preserve">
<style type="text/css">
	.st0{clip-path:url(#SVGID_2_);}
	.st1{fill:url(#SVGID_3_);}
	.st2{fill:url(#SVGID_4_);}
	.st3{fill:url(#SVGID_5_);}
	.st4{fill:url(#SVGID_6_);}
	.st5{fill:url(#SVGID_7_);}
	.st6{fill:url(#SVGID_8_);}
	.st7{fill:url(#SVGID_9_);}
	.st8{fill:url(#SVGID_10_);}
	.st9{fill:url(#SVGID_11_);}
	.st10{fill:url(#SVGID_12_);}
	.st11{fill:url(#SVGID_13_);}
	.st12{fill:url(#SVGID_14_);}
	.st13{fill:url(#SVGID_15_);}
	.st14{fill:url(#SVGID_16_);}
	.st15{fill:#FFFFFF;}
	.st16{fill:none;stroke:url(#SVGID_17_);stroke-width:2;stroke-miterlimit:10;}
	.st17{fill:none;stroke:url(#SVGID_18_);stroke-width:2;stroke-miterlimit:10;}
	.st18{fill:none;stroke:url(#SVGID_19_);stroke-width:2;stroke-miterlimit:10;}
	.st19{fill:url(#SVGID_20_);}
	.st20{fill:none;stroke:url(#SVGID_21_);stroke-width:2;stroke-miterlimit:10;}
	.st21{fill:none;}
</style>
<g id="BACKGROUND">
	<g>
		<defs>
			
				<rect id="SVGID_1_" x="0.03" y="0.03" transform="matrix(-1 -1.224647e-16 1.224647e-16 -1 750.0558 500.056)" width="750" height="500"/>
		</defs>
		<clipPath id="SVGID_2_">
			<use xlink:href="#SVGID_1_"  style="overflow:visible;"/>
		</clipPath>
		<g class="st0">
			<g>
				<linearGradient id="SVGID_3_" gradientUnits="userSpaceOnUse" x1="103.1173" y1="-56.1236" x2="373.1172" y2="247.8768">
					<stop  offset="0" style="stop-color:#3C3C45"/>
					<stop  offset="0.4061" style="stop-color:#32323A"/>
					<stop  offset="1" style="stop-color:#1C1D22"/>
				</linearGradient>
				<polygon class="st1" points="0.03,500.03 750.03,500.03 750.03,0.03 0.03,0.03 				"/>
				<linearGradient id="SVGID_4_" gradientUnits="userSpaceOnUse" x1="287.0294" y1="136.6741" x2="523.0298" y2="440.6741">
					<stop  offset="0" style="stop-color:#3C3C45"/>
					<stop  offset="0.4061" style="stop-color:#32323A"/>
					<stop  offset="1" style="stop-color:#1C1D22"/>
				</linearGradient>
				<path class="st2" d="M696.47,0.03c-5.29,24.39-12,48.43-20.61,71.93c-14.46,39.47-34.61,77.05-62.09,109.03
					c-30.45,35.43-68.41,63.36-109.86,84.62c-67.88,34.81-142.19,51.63-216.28,67.25c-62.83,13.25-126.79,27.65-185.04,55.44
					C56.99,410.04,11.65,443.73,0.03,494.05v5.98h750v-500H696.47z"/>
			</g>
			<g>
				<g>
					<linearGradient id="SVGID_5_" gradientUnits="userSpaceOnUse" x1="237.4781" y1="259.7187" x2="162.1344" y2="101.4959">
						<stop  offset="4.461640e-03" style="stop-color:#FFE485"/>
						<stop  offset="1" style="stop-color:#FF94E5"/>
					</linearGradient>
					<path class="st3" d="M125.56,236.22h173.43c7.62-8.76,13.98-18.67,18.84-29.46H106.72
						C111.57,217.55,117.94,227.46,125.56,236.22z"/>
					<linearGradient id="SVGID_6_" gradientUnits="userSpaceOnUse" x1="250.3054" y1="252.6842" x2="175.018" y2="94.5796">
						<stop  offset="4.461640e-03" style="stop-color:#FFE485"/>
						<stop  offset="1" style="stop-color:#FF94E5"/>
					</linearGradient>
					<path class="st4" d="M101.53,193.11h221.49c2.91-9.37,4.73-19.24,5.29-29.46H96.24C96.8,173.87,98.62,183.74,101.53,193.11z"/>
					<linearGradient id="SVGID_7_" gradientUnits="userSpaceOnUse" x1="221.0206" y1="268.2374" x2="145.7518" y2="110.1719">
						<stop  offset="4.461640e-03" style="stop-color:#FFE485"/>
						<stop  offset="1" style="stop-color:#FF94E5"/>
					</linearGradient>
					<path class="st5" d="M212.28,276.1c27.51,0,52.78-9.83,72.69-26.23H139.59C159.5,266.27,184.76,276.1,212.28,276.1z"/>
					<linearGradient id="SVGID_8_" gradientUnits="userSpaceOnUse" x1="291.6468" y1="230.4529" x2="216.378" y2="72.3874">
						<stop  offset="4.461640e-03" style="stop-color:#FFE485"/>
						<stop  offset="1" style="stop-color:#FF94E5"/>
					</linearGradient>
					<path class="st6" d="M212.28,37.55c-27.51,0-52.78,9.83-72.68,26.23h145.37C265.05,47.38,239.79,37.55,212.28,37.55z"/>
					<linearGradient id="SVGID_9_" gradientUnits="userSpaceOnUse" x1="262.3834" y1="246.0512" x2="187.096" y2="87.9466">
						<stop  offset="4.461640e-03" style="stop-color:#FFE485"/>
						<stop  offset="1" style="stop-color:#FF94E5"/>
					</linearGradient>
					<path class="st7" d="M96.24,150h232.07c-0.56-10.22-2.38-20.09-5.29-29.46H101.53C98.62,129.91,96.8,139.78,96.24,150z"/>
					<linearGradient id="SVGID_10_" gradientUnits="userSpaceOnUse" x1="275.2767" y1="239.1551" x2="199.933" y2="80.9323">
						<stop  offset="4.461640e-03" style="stop-color:#FFE485"/>
						<stop  offset="1" style="stop-color:#FF94E5"/>
					</linearGradient>
					<path class="st8" d="M125.56,77.42c-7.62,8.76-13.98,18.67-18.84,29.46h211.11c-4.85-10.79-11.22-20.7-18.84-29.46H125.56z"/>
				</g>
				<g>
					<linearGradient id="SVGID_11_" gradientUnits="userSpaceOnUse" x1="568.1942" y1="437.2719" x2="533.7846" y2="365.0114">
						<stop  offset="4.461640e-03" style="stop-color:#FFE485"/>
						<stop  offset="1" style="stop-color:#FF94E5"/>
					</linearGradient>
					<path class="st9" d="M517.08,426.54h79.21c3.48-4,6.39-8.53,8.6-13.45h-96.42C510.69,418.01,513.6,422.54,517.08,426.54z"/>
					<linearGradient id="SVGID_12_" gradientUnits="userSpaceOnUse" x1="574.0524" y1="434.0592" x2="539.6685" y2="361.8525">
						<stop  offset="4.461640e-03" style="stop-color:#FFE485"/>
						<stop  offset="1" style="stop-color:#FF94E5"/>
					</linearGradient>
					<path class="st10" d="M506.11,406.85h101.15c1.33-4.28,2.16-8.79,2.42-13.45H503.69C503.95,398.06,504.78,402.57,506.11,406.85
						z"/>
					<linearGradient id="SVGID_13_" gradientUnits="userSpaceOnUse" x1="560.678" y1="441.1624" x2="526.3026" y2="368.9736">
						<stop  offset="4.461640e-03" style="stop-color:#FFE485"/>
						<stop  offset="1" style="stop-color:#FF94E5"/>
					</linearGradient>
					<path class="st11" d="M556.68,444.75c12.57,0,24.1-4.49,33.2-11.98h-66.39C532.58,440.26,544.12,444.75,556.68,444.75z"/>
					<linearGradient id="SVGID_14_" gradientUnits="userSpaceOnUse" x1="592.9331" y1="423.9062" x2="558.5577" y2="351.7173">
						<stop  offset="4.461640e-03" style="stop-color:#FFE485"/>
						<stop  offset="1" style="stop-color:#FF94E5"/>
					</linearGradient>
					<path class="st12" d="M556.68,335.8c-12.57,0-24.1,4.49-33.2,11.98h66.39C580.79,340.29,569.25,335.8,556.68,335.8z"/>
					<linearGradient id="SVGID_15_" gradientUnits="userSpaceOnUse" x1="579.5685" y1="431.03" x2="545.1846" y2="358.8233">
						<stop  offset="4.461640e-03" style="stop-color:#FFE485"/>
						<stop  offset="1" style="stop-color:#FF94E5"/>
					</linearGradient>
					<path class="st13" d="M503.69,387.16h105.99c-0.26-4.67-1.09-9.17-2.42-13.45H506.11
						C504.78,377.99,503.95,382.49,503.69,387.16z"/>
					<linearGradient id="SVGID_16_" gradientUnits="userSpaceOnUse" x1="585.4568" y1="427.8804" x2="551.0472" y2="355.6198">
						<stop  offset="4.461640e-03" style="stop-color:#FFE485"/>
						<stop  offset="1" style="stop-color:#FF94E5"/>
					</linearGradient>
					<path class="st14" d="M517.08,354.02c-3.48,4-6.39,8.53-8.6,13.45h96.42c-2.22-4.93-5.12-9.46-8.6-13.45H517.08z"/>
				</g>
			</g>
			<g>
				
					<rect x="51.42" y="73.05" transform="matrix(0.7071 -0.7071 0.7071 0.7071 -38.1983 61.6308)" class="st15" width="7.75" height="7.75"/>
				
					<rect x="169.42" y="309.05" transform="matrix(0.7071 -0.7071 0.7071 0.7071 -170.5141 214.1923)" class="st15" width="7.75" height="7.75"/>
				
					<rect x="345.42" y="45.05" transform="matrix(0.7071 -0.7071 0.7071 0.7071 67.7113 261.3192)" class="st15" width="7.75" height="7.75"/>
				
					<rect x="441.42" y="441.05" transform="matrix(0.7071 -0.7071 0.7071 0.7071 -184.1852 445.1871)" class="st15" width="7.75" height="7.75"/>
				
					<rect x="564.42" y="263.05" transform="matrix(0.7071 -0.7071 0.7071 0.7071 -22.2944 480.0263)" class="st15" width="7.75" height="7.75"/>
				
					<rect x="630.42" y="419.05" transform="matrix(0.7071 -0.7071 0.7071 0.7071 -113.2721 572.3867)" class="st15" width="7.75" height="7.75"/>
				<g>
					<g>
						<circle class="st15" cx="647.18" cy="130.36" r="2.5"/>
						<circle class="st15" cx="635.68" cy="130.36" r="2.5"/>
						<circle class="st15" cx="624.18" cy="130.36" r="2.5"/>
						<circle class="st15" cx="612.68" cy="130.36" r="2.5"/>
						<circle class="st15" cx="601.18" cy="130.36" r="2.5"/>
						<circle class="st15" cx="589.68" cy="130.36" r="2.5"/>
					</g>
					<g>
						<circle class="st15" cx="647.18" cy="121.36" r="2.5"/>
						<circle class="st15" cx="635.68" cy="121.36" r="2.5"/>
						<circle class="st15" cx="624.18" cy="121.36" r="2.5"/>
						<circle class="st15" cx="612.68" cy="121.36" r="2.5"/>
						<circle class="st15" cx="601.18" cy="121.36" r="2.5"/>
						<circle class="st15" cx="589.68" cy="121.36" r="2.5"/>
					</g>
				</g>
				<g>
					<g>
						<circle class="st15" cx="131.18" cy="412.36" r="2.5"/>
						<circle class="st15" cx="119.68" cy="412.36" r="2.5"/>
						<circle class="st15" cx="108.18" cy="412.36" r="2.5"/>
						<circle class="st15" cx="96.68" cy="412.36" r="2.5"/>
						<circle class="st15" cx="85.18" cy="412.36" r="2.5"/>
						<circle class="st15" cx="73.68" cy="412.36" r="2.5"/>
					</g>
					<g>
						<circle class="st15" cx="131.18" cy="403.36" r="2.5"/>
						<circle class="st15" cx="119.68" cy="403.36" r="2.5"/>
						<circle class="st15" cx="108.18" cy="403.36" r="2.5"/>
						<circle class="st15" cx="96.68" cy="403.36" r="2.5"/>
						<circle class="st15" cx="85.18" cy="403.36" r="2.5"/>
						<circle class="st15" cx="73.68" cy="403.36" r="2.5"/>
					</g>
				</g>
				<linearGradient id="SVGID_17_" gradientUnits="userSpaceOnUse" x1="500.661" y1="65.9249" x2="533.9306" y2="65.9249">
					<stop  offset="4.461640e-03" style="stop-color:#FFF1BF"/>
					<stop  offset="1" style="stop-color:#FFBDEF"/>
				</linearGradient>
				
					<rect x="506.53" y="55.16" transform="matrix(-0.7071 0.7071 -0.7071 -0.7071 929.695 -253.2426)" class="st16" width="21.53" height="21.53"/>
				<linearGradient id="SVGID_18_" gradientUnits="userSpaceOnUse" x1="208.661" y1="434.9249" x2="241.9306" y2="434.9249">
					<stop  offset="4.461640e-03" style="stop-color:#FFF1BF"/>
					<stop  offset="1" style="stop-color:#FFBDEF"/>
				</linearGradient>
				
					<rect x="214.53" y="424.16" transform="matrix(-0.7071 0.7071 -0.7071 -0.7071 692.1423 583.1549)" class="st17" width="21.53" height="21.53"/>
				<linearGradient id="SVGID_19_" gradientUnits="userSpaceOnUse" x1="35.661" y1="261.9249" x2="96.9306" y2="261.9249">
					<stop  offset="4.461640e-03" style="stop-color:#FFF1BF"/>
					<stop  offset="1" style="stop-color:#FFBDEF"/>
				</linearGradient>
				
					<rect x="45.63" y="241.26" transform="matrix(-0.7071 0.7071 -0.7071 -0.7071 298.3828 400.2554)" class="st18" width="41.32" height="41.32"/>
				<linearGradient id="SVGID_20_" gradientUnits="userSpaceOnUse" x1="669.6667" y1="341.2957" x2="694.9248" y2="341.2957">
					<stop  offset="4.461640e-03" style="stop-color:#FFF1BF"/>
					<stop  offset="1" style="stop-color:#FFBDEF"/>
				</linearGradient>
				<polygon class="st19" points="669.67,341.3 682.3,328.67 694.92,341.3 682.3,353.92 				"/>
				<linearGradient id="SVGID_21_" gradientUnits="userSpaceOnUse" x1="665.6609" y1="252.9249" x2="726.9306" y2="252.9249">
					<stop  offset="4.461640e-03" style="stop-color:#FFF1BF"/>
					<stop  offset="1" style="stop-color:#FFBDEF"/>
				</linearGradient>
				
					<rect x="675.63" y="232.26" transform="matrix(-0.7071 0.7071 -0.7071 -0.7071 1367.4961 -60.5858)" class="st20" width="41.32" height="41.32"/>
			</g>
		</g>
	</g>
</g>
<g id="OBJECTS">
	<g>
		<g>
		</g>
		<g>
		</g>
	</g>
	<rect x="394.87" y="366.68" class="st21" width="7.53" height="24.28"/>
</g>
</svg>
