<?xml version="1.0" encoding="utf-8"?>
<!-- Generator: Adobe Illustrator 23.0.0, SVG Export Plug-In . SVG Version: 6.00 Build 0)  -->
<svg version="1.1" xmlns="http://www.w3.org/2000/svg" xmlns:xlink="http://www.w3.org/1999/xlink" x="0px" y="0px"
	 viewBox="0 0 750 500" style="enable-background:new 0 0 750 500;" xml:space="preserve">
<style type="text/css">
	.st0{display:none;}
	.st1{display:inline;fill:url(#SVGID_1_);}
	.st2{fill:#B6FFFF;}
	.st3{fill:#29D3CE;}
	.st4{fill:#169B94;}
	.st5{fill:#FFB255;}
	.st6{fill:#A797FC;}
	.st7{fill:#FFEB52;}
	.st8{fill:#FFF5BD;}
	.st9{opacity:0.28;fill:#F2AF5C;}
	.st10{opacity:0.22;fill:#ED7E3D;}
	.st11{fill:#282F39;}
	.st12{fill:#C6C0FF;}
	.st13{fill:#E05F45;}
	.st14{fill:#8758DA;}
	.st15{fill:#6441AF;}
	.st16{fill:#F76540;}
	.st17{fill:#424B56;}
	.st18{clip-path:url(#SVGID_3_);}
	.st19{fill:#FF9CC4;}
	.st20{fill:#FAFAFA;}
	.st21{fill:#914724;}
	.st22{fill:#F5A489;}
	.st23{fill:#D39933;}
	.st24{fill:#EDC59C;}
	.st25{fill:#68301C;}
	.st26{display:inline;}
	.st27{fill:#FFFFFF;}
</style>
<g id="BACKGROUND" class="st0">
	<linearGradient id="SVGID_1_" gradientUnits="userSpaceOnUse" x1="0" y1="250" x2="750" y2="250">
		<stop  offset="0" style="stop-color:#95EFEF"/>
		<stop  offset="1" style="stop-color:#46D0DD"/>
	</linearGradient>
	<rect y="-0.01" class="st1" width="750" height="500.03"/>
</g>
<g id="OBJECTS">
	<path class="st2" d="M273.64,240.93c-1.17,5.37-1.67,11.05-0.02,16.29c1.65,5.24,5.82,9.94,11.21,10.98c7.4,1.42,14.3-4.11,19-9.99
		c8.94-11.19,27.97-50.02,6.9-58.12C291.99,192.88,276.61,227.28,273.64,240.93z"/>
	<g>
		<g>
			<path class="st3" d="M589.08,328.31c0.24-12.52-5.33-40.79-18.29-46.41c-2.76,12.22,4.21,44.12,18.43,49.01
				C589.6,329.44,588.76,329.22,589.08,328.31z"/>
		</g>
		<g>
			<path class="st3" d="M605.89,305.74c6.22-8.28,16.15-29.95,10.17-39.99c-7.76,6.87-18.51,31.64-11.33,41.8
				C605.69,306.76,605.23,306.2,605.89,305.74z"/>
		</g>
		<g>
			<path class="st3" d="M606.95,306.02c8.2-6.32,29.74-16.54,39.85-10.69c-6.77,7.85-31.39,18.92-41.65,11.88
				C605.93,306.22,606.5,306.67,606.95,306.02z"/>
		</g>
		<g>
			<path class="st3" d="M622.83,289.65c10.09-2.33,31.65-12.5,33.54-24.03c-10.36,0.25-34.54,12.27-35.6,24.66
				C622.03,290.3,622.03,289.58,622.83,289.65z"/>
		</g>
		<g>
			<path class="st3" d="M592.57,329.14c10.82-6.3,38.24-15.18,49.45-6.59c-9.34,8.35-40.59,17.78-51.79,7.74
				C591.32,329.24,591.93,329.86,592.57,329.14z"/>
		</g>
		<g>
			<path class="st3" d="M574.79,354.03c0.24-12.52-5.33-40.79-18.29-46.41c-2.76,12.22,4.21,44.12,18.43,49.01
				C575.32,355.16,574.47,354.94,574.79,354.03z"/>
		</g>
		<g>
			<path class="st3" d="M576.54,353.23c10.82-6.3,38.24-15.18,49.45-6.59c-9.34,8.35-40.59,17.78-51.79,7.74
				C575.3,353.33,575.9,353.96,576.54,353.23z"/>
		</g>
		<g>
			<path class="st3" d="M563.22,379.52c0.24-12.52-5.33-40.79-18.29-46.41c-2.76,12.22,4.21,44.12,18.43,49.01
				C563.74,380.66,562.9,380.44,563.22,379.52z"/>
		</g>
		<g>
			<path class="st3" d="M566.7,380.36c10.82-6.3,38.24-15.18,49.45-6.6c-9.34,8.35-40.59,17.78-51.79,7.74
				C565.46,380.45,566.06,381.08,566.7,380.36z"/>
		</g>
		<g>
			<path class="st3" d="M627.13,284.4c0.33,0.43,0.25,1.06-0.19,1.39c-0.21,0.16-20.83,16.11-42.28,53.11
				c-9.25,15.96-25.9,56.52-32.68,75.34c-0.61-0.26-1.23-0.49-1.83-0.77c6.83-18.94,23.53-59.61,32.86-75.67
				c11.3-19.47,22.3-32.99,29.53-40.89c7.86-8.59,12.98-12.52,13.19-12.68C626.17,283.88,626.8,283.96,627.13,284.4z"/>
		</g>
	</g>
	<g>
		<g>
			<g>
				<path class="st4" d="M608.3,417.55c-0.2,1.55-0.27,3.32-0.43,5.21h-44.54c-0.5-4.21,0.11-8.58,2.05-12.62
					c2.5-5.19,6.79-9.55,11.97-12.22c4.35-2.24,13.26-2.76,15.81-7.36c4.23-7.66-8.64-14.89-1.79-22.74
					c5.98-6.85,16.92-0.19,22.03-6.58c3.26-4.07,0.29-8.18,1.3-12.57c0.97-4.21,4.7-8.95,8.37-11.08
					c9.84-5.72,21.85,3.07,16.41,14.05c-2.58,5.2-9.5,8.63-10.47,14.61c-0.81,4.98,2.83,6.8,4.56,11.07
					c5.38,13.23-9.46,12.8-16.73,17.91C609.49,400.42,621.61,416.79,608.3,417.55z"/>
			</g>
			<g>
				<path class="st3" d="M628.32,350.04c0.01-0.14-0.07-0.28-0.21-0.35c-0.19-0.09-0.41-0.02-0.5,0.17l-34.5,70.05
					c-0.09,0.19-0.01,0.41,0.17,0.5c0.19,0.09,0.41,0.02,0.5-0.17l34.5-70.05C628.31,350.14,628.32,350.09,628.32,350.04z"/>
			</g>
			<g>
				<path class="st3" d="M624.95,386.99c0-0.04,0-0.08-0.02-0.12c-0.06-0.2-0.27-0.31-0.47-0.25l-17.38,5.19
					c-0.2,0.06-0.31,0.27-0.25,0.47c0.06,0.2,0.27,0.31,0.47,0.25l17.38-5.19C624.84,387.28,624.94,387.14,624.95,386.99z"/>
			</g>
			<g>
				<path class="st3" d="M622.98,360.78c0-0.04,0-0.09-0.02-0.14l-3.75-11.03c-0.07-0.2-0.28-0.3-0.48-0.24
					c-0.2,0.07-0.3,0.28-0.23,0.48l3.75,11.03c0.07,0.2,0.28,0.3,0.48,0.23C622.88,361.07,622.98,360.93,622.98,360.78z"/>
			</g>
			<g>
				<path class="st3" d="M602.35,402.74c0-0.04,0-0.08-0.02-0.13l-5.54-16.3c-0.06-0.18-0.26-0.28-0.45-0.22
					c-0.18,0.06-0.28,0.26-0.22,0.45l5.54,16.3c0.06,0.18,0.26,0.28,0.45,0.22C602.26,403.01,602.35,402.88,602.35,402.74z"/>
			</g>
		</g>
		<g>
			<g>
				<path class="st3" d="M642.52,417.01c-0.22,1.73-0.3,3.73-0.48,5.85h-49.97c-0.56-4.72,0.12-9.62,2.31-14.16
					c2.8-5.82,7.61-10.71,13.43-13.71c4.88-2.51,14.88-3.1,17.73-8.26c4.75-8.59-9.7-16.71-2.01-25.51
					c6.71-7.69,18.98-0.22,24.72-7.38c3.65-4.57,0.33-9.18,1.46-14.1c1.09-4.72,5.27-10.04,9.39-12.43
					c11.04-6.42,24.52,3.44,18.41,15.76c-2.89,5.84-10.66,9.69-11.75,16.39c-0.91,5.59,3.17,7.63,5.12,12.42
					c6.03,14.85-10.61,14.36-18.77,20.09C643.85,397.79,657.44,416.16,642.52,417.01z"/>
			</g>
			<g>
				<path class="st4" d="M664.98,341.26c0.01-0.16-0.08-0.32-0.23-0.39c-0.21-0.1-0.46-0.02-0.56,0.19l-38.71,78.58
					c-0.1,0.21-0.02,0.46,0.19,0.56c0.21,0.1,0.46,0.02,0.56-0.19l38.71-78.58C664.96,341.38,664.97,341.32,664.98,341.26z"/>
			</g>
			<g>
				<path class="st4" d="M661.19,382.72c0-0.05,0-0.09-0.02-0.14c-0.07-0.22-0.3-0.35-0.52-0.28l-19.5,5.82
					c-0.22,0.07-0.35,0.3-0.28,0.52c0.07,0.22,0.3,0.35,0.52,0.28l19.5-5.82C661.06,383.05,661.18,382.89,661.19,382.72z"/>
			</g>
			<g>
				<path class="st4" d="M658.99,353.32c0-0.05-0.01-0.1-0.02-0.15l-4.21-12.38c-0.08-0.22-0.31-0.34-0.54-0.26
					c-0.22,0.08-0.34,0.32-0.26,0.54l4.21,12.38c0.08,0.22,0.31,0.34,0.54,0.26C658.87,353.64,658.98,353.49,658.99,353.32z"/>
			</g>
			<g>
				<path class="st4" d="M635.84,400.39c0-0.05,0-0.09-0.02-0.14l-6.22-18.28c-0.07-0.21-0.29-0.32-0.5-0.25
					c-0.21,0.07-0.32,0.3-0.25,0.5l6.22,18.28c0.07,0.21,0.29,0.32,0.5,0.25C635.73,400.7,635.84,400.55,635.84,400.39z"/>
			</g>
		</g>
	</g>
	<path class="st3" d="M646.8,172.08L646.8,172.08c-3.78,0-6.87-3.09-6.87-6.87v-28.03c0-3.78,3.09-6.87,6.87-6.87l0,0
		c3.78,0,6.87,3.09,6.87,6.87v28.03C653.67,168.99,650.58,172.08,646.8,172.08z"/>
	<path class="st5" d="M371.03,130.29H344.1c-3.33,0-6.05-2.72-6.05-6.05l0,0c0-3.33,2.72-6.05,6.05-6.05h26.93
		c3.33,0,6.05,2.72,6.05,6.05l0,0C377.07,127.57,374.35,130.29,371.03,130.29z"/>
	<path class="st3" d="M585.56,70.33c0,3.2-2.6,5.8-5.8,5.8c-3.2,0-5.8-2.6-5.8-5.8c0-3.2,2.6-5.8,5.8-5.8
		C582.96,64.53,585.56,67.12,585.56,70.33z"/>
	<path class="st5" d="M229.3,392.17c0,3.2-2.6,5.8-5.8,5.8c-3.2,0-5.8-2.6-5.8-5.8c0-3.2,2.6-5.8,5.8-5.8
		C226.7,386.37,229.3,388.96,229.3,392.17z"/>
	<path class="st5" d="M659.47,226.84c0,3.2-2.6,5.8-5.8,5.8c-3.2,0-5.8-2.6-5.8-5.8s2.6-5.8,5.8-5.8
		C656.87,221.04,659.47,223.64,659.47,226.84z"/>
	<path class="st3" d="M382.88,70.33c0,3.2-2.6,5.8-5.8,5.8s-5.8-2.6-5.8-5.8c0-3.2,2.6-5.8,5.8-5.8S382.88,67.12,382.88,70.33z"/>
	<path class="st6" d="M470.91,141.82c0,3.2-2.6,5.8-5.8,5.8s-5.8-2.6-5.8-5.8c0-3.2,2.6-5.8,5.8-5.8S470.91,138.61,470.91,141.82z"
		/>
	
		<ellipse transform="matrix(0.1602 -0.9871 0.9871 0.1602 290.3552 517.0457)" class="st7" cx="449.03" cy="87.89" rx="17.56" ry="17.56"/>
	<g>
		<g>
			<path class="st3" d="M378.61,337.33c-0.24-12.52,5.33-40.79,18.29-46.41c2.76,12.22-4.21,44.12-18.43,49.01
				C378.09,338.46,378.93,338.24,378.61,337.33z"/>
		</g>
		<g>
			<path class="st3" d="M361.81,314.76c-6.22-8.28-16.15-29.95-10.17-39.99c7.76,6.87,18.51,31.64,11.33,41.8
				C362,315.78,362.46,315.22,361.81,314.76z"/>
		</g>
		<g>
			<path class="st3" d="M360.75,315.03c-8.2-6.32-29.74-16.54-39.85-10.69c6.77,7.85,31.39,18.92,41.65,11.88
				C361.76,315.24,361.2,315.69,360.75,315.03z"/>
		</g>
		<g>
			<path class="st3" d="M344.86,298.67c-10.09-2.33-31.65-12.5-33.54-24.03c10.36,0.25,34.54,12.27,35.6,24.66
				C345.67,299.31,345.66,298.59,344.86,298.67z"/>
		</g>
		<g>
			<path class="st3" d="M375.13,338.16c-10.82-6.3-38.24-15.18-49.45-6.59c9.34,8.35,40.59,17.78,51.79,7.74
				C376.37,338.25,375.77,338.88,375.13,338.16z"/>
		</g>
		<g>
			<path class="st3" d="M392.9,363.04c-0.24-12.52,5.33-40.79,18.29-46.41c2.76,12.22-4.21,44.12-18.43,49.01
				C392.38,364.18,393.22,363.95,392.9,363.04z"/>
		</g>
		<g>
			<path class="st3" d="M391.15,362.25c-10.82-6.3-38.24-15.18-49.45-6.6c9.34,8.35,40.59,17.78,51.79,7.74
				C392.4,362.35,391.79,362.97,391.15,362.25z"/>
		</g>
		<g>
			<path class="st3" d="M404.48,388.54c-0.24-12.52,5.33-40.79,18.29-46.41c2.76,12.22-4.21,44.12-18.43,49.01
				C403.95,389.68,404.8,389.45,404.48,388.54z"/>
		</g>
		<g>
			<path class="st3" d="M400.99,389.38c-10.82-6.3-38.24-15.18-49.45-6.6c9.34,8.35,40.59,17.78,51.79,7.74
				C402.24,389.47,401.63,390.1,400.99,389.38z"/>
		</g>
		<g>
			<path class="st3" d="M340.57,293.41c-0.33,0.43-0.25,1.06,0.19,1.39c0.21,0.16,20.83,16.11,42.28,53.11
				c9.25,15.96,25.9,56.52,32.68,75.34c0.61-0.26,1.23-0.49,1.83-0.77c-6.83-18.94-23.53-59.61-32.86-75.67
				c-11.3-19.47-22.3-32.99-29.53-40.89c-7.86-8.59-12.98-12.52-13.19-12.68C341.52,292.89,340.9,292.98,340.57,293.41z"/>
		</g>
	</g>
	<g>
		<g>
			<g>
				<path class="st4" d="M320.75,416.57c0.24,1.83,0.31,3.93,0.51,6.17h52.76c0.59-4.98-0.13-10.16-2.43-14.95
					c-2.96-6.15-8.04-11.31-14.18-14.47c-5.15-2.65-15.71-3.27-18.72-8.72c-5.01-9.07,10.24-17.64,2.12-26.94
					c-7.08-8.12-20.04-0.23-26.1-7.79c-3.86-4.82-0.35-9.69-1.54-14.89c-1.15-4.98-5.56-10.6-9.91-13.12
					c-11.65-6.77-25.89,3.63-19.44,16.64c3.05,6.16,11.25,10.23,12.41,17.31c0.96,5.9-3.35,8.06-5.41,13.12
					c-6.37,15.68,11.2,15.16,19.82,21.22C319.35,396.28,304.99,415.67,320.75,416.57z"/>
			</g>
			<g>
				<path class="st3" d="M297.04,336.59c-0.01-0.17,0.09-0.34,0.25-0.42c0.22-0.11,0.49-0.02,0.6,0.2l40.87,82.98
					c0.11,0.22,0.02,0.49-0.2,0.6c-0.22,0.11-0.49,0.02-0.6-0.2l-40.87-82.98C297.05,336.72,297.04,336.65,297.04,336.59z"/>
			</g>
			<g>
				<path class="st3" d="M301.04,380.36c0-0.05,0-0.1,0.02-0.14c0.07-0.24,0.32-0.37,0.55-0.3l20.59,6.15
					c0.24,0.07,0.37,0.32,0.3,0.55c-0.07,0.24-0.32,0.37-0.55,0.3l-20.59-6.15C301.17,380.72,301.04,380.55,301.04,380.36z"/>
			</g>
			<g>
				<path class="st3" d="M303.36,349.32c0-0.05,0.01-0.11,0.02-0.16l4.44-13.07c0.08-0.23,0.33-0.36,0.57-0.28
					c0.23,0.08,0.36,0.33,0.28,0.56l-4.44,13.07c-0.08,0.23-0.33,0.36-0.57,0.28C303.48,349.66,303.37,349.5,303.36,349.32z"/>
			</g>
			<g>
				<path class="st3" d="M327.8,399.03c0-0.05,0.01-0.1,0.02-0.15l6.56-19.3c0.07-0.22,0.31-0.33,0.53-0.26
					c0.22,0.07,0.33,0.31,0.26,0.53l-6.56,19.3c-0.07,0.22-0.31,0.33-0.53,0.26C327.91,399.35,327.81,399.19,327.8,399.03z"/>
			</g>
		</g>
		<g>
			<g>
				<path class="st3" d="M280.22,415.93c0.27,2.05,0.35,4.41,0.57,6.93h59.19c0.66-5.59-0.14-11.4-2.73-16.77
					c-3.32-6.9-9.02-12.69-15.91-16.24c-5.78-2.97-17.63-3.67-21.01-9.78c-5.62-10.18,11.49-19.79,2.38-30.22
					c-7.95-9.11-22.49-0.25-29.28-8.74c-4.33-5.41-0.39-10.87-1.73-16.7c-1.29-5.59-6.24-11.89-11.12-14.72
					c-13.07-7.6-29.04,4.07-21.81,18.67c3.42,6.91,12.62,11.47,13.92,19.42c1.08,6.62-3.76,9.04-6.07,14.72
					c-7.15,17.59,12.57,17.01,22.24,23.8C278.65,393.16,262.54,414.92,280.22,415.93z"/>
			</g>
			<g>
				<path class="st4" d="M253.62,326.2c-0.01-0.19,0.1-0.38,0.28-0.47c0.25-0.12,0.55-0.02,0.67,0.23l45.85,93.09
					c0.12,0.25,0.02,0.55-0.23,0.67c-0.25,0.12-0.55,0.02-0.67-0.23l-45.85-93.09C253.64,326.34,253.62,326.27,253.62,326.2z"/>
			</g>
			<g>
				<path class="st4" d="M258.1,375.31c0-0.05,0-0.11,0.02-0.16c0.08-0.26,0.36-0.41,0.62-0.34l23.1,6.9
					c0.26,0.08,0.42,0.36,0.34,0.62c-0.08,0.26-0.36,0.41-0.62,0.34l-23.1-6.9C258.25,375.7,258.11,375.52,258.1,375.31z"/>
			</g>
			<g>
				<path class="st4" d="M260.71,340.48c0-0.06,0.01-0.12,0.03-0.18l4.99-14.66c0.09-0.26,0.37-0.4,0.63-0.31
					c0.26,0.09,0.4,0.37,0.31,0.63l-4.99,14.66c-0.09,0.26-0.37,0.4-0.63,0.31C260.85,340.87,260.72,340.68,260.71,340.48z"/>
			</g>
			<g>
				<path class="st4" d="M288.13,396.24c0-0.06,0.01-0.11,0.02-0.17l7.36-21.66c0.08-0.24,0.35-0.38,0.59-0.29
					c0.24,0.08,0.37,0.35,0.29,0.59l-7.36,21.66c-0.08,0.24-0.35,0.38-0.59,0.29C288.26,396.61,288.14,396.43,288.13,396.24z"/>
			</g>
		</g>
	</g>
	<g>
		<g>
			<path class="st8" d="M564.96,355.67l0.51,55.43c0.04,4.36-3.5,7.95-7.86,7.99l-100.06,0.92c-4.37,0.04-7.97-3.49-8.01-7.85
				l-0.51-55.42c-0.04-4.36,3.49-7.95,7.86-7.99l100.06-0.92C561.31,347.79,564.92,351.32,564.96,355.67z"/>
			<path class="st9" d="M565.12,373.31l0.35,37.79c0.04,4.36-3.5,7.95-7.86,7.99l-100.06,0.92c-4.37,0.04-7.97-3.49-8.01-7.85
				l-0.35-41.46l60.68,31.11L565.12,373.31z"/>
		</g>
		<polygon class="st10" points="449.2,370.7 487.49,390.39 449.54,413.63 		"/>
		<polygon class="st10" points="564.8,373.64 528.71,392.6 565.19,412.16 		"/>
	</g>
	<g>
		<rect x="525.14" y="245.85" class="st11" width="12.51" height="165.67"/>
		<g>
			<path class="st6" d="M620.65,296.08H403.66v-80.85c0-28.62,23.21-51.83,51.83-51.83h113.33c28.62,0,51.83,23.21,51.83,51.83
				V296.08z"/>
			<rect x="403.66" y="258.51" class="st12" width="216.99" height="37.58"/>
			<path class="st13" d="M507.91,296.1H403.66v-80.87c0-28.62,23.21-51.83,51.83-51.83h0.59c28.62,0,51.83,23.21,51.83,51.83V296.1z
				"/>
			<path class="st14" d="M507.91,215.23v80.88H403.66v-80.88c0-28.62,23.21-51.83,51.83-51.83h0.59c10.19,0,19.71,2.94,27.72,8.03
				C498.29,180.63,507.91,196.81,507.91,215.23z"/>
			<path class="st15" d="M507.91,215.23v80.88h-52.13v-88.82c0-17.33,11.93-31.87,28.02-35.86
				C498.29,180.63,507.91,196.81,507.91,215.23z"/>
			<path class="st6" d="M473.68,296.08h-35.8h-34.21l-35.39,35.24c0,0-30.35,24.88,26.77,24.88s77.23-24.88,77.23-24.88l35.6-35.24
				H473.68z"/>
		</g>
		<g>
			<rect x="532.05" y="131.91" class="st11" width="4.84" height="76.9"/>
			<ellipse class="st14" cx="536.8" cy="209.41" rx="13.05" ry="17.43"/>
			<polygon class="st16" points="597.05,141.82 532.05,141.82 532.05,106.68 597.05,106.68 581.61,124.28 			"/>
		</g>
		<path class="st17" d="M563.82,425.09h-64.85c-4.74,0-8.62-3.88-8.62-8.62v0c0-4.74,3.88-8.62,8.62-8.62h64.85
			c4.74,0,8.62,3.88,8.62,8.62v0C572.44,421.21,568.56,425.09,563.82,425.09z"/>
	</g>
	<g>
		<defs>
			<rect id="SVGID_2_" x="392.62" y="210.02" width="116.23" height="78.04"/>
		</defs>
		<clipPath id="SVGID_3_">
			<use xlink:href="#SVGID_2_"  style="overflow:visible;"/>
		</clipPath>
		<g class="st18">
			<g>
				<path class="st8" d="M541.52,223.93l0.49,53.16c0.04,4.18-3.36,7.63-7.54,7.66l-95.96,0.88c-4.19,0.04-7.64-3.35-7.68-7.52
					l-0.49-53.16c-0.04-4.18,3.35-7.63,7.54-7.66l95.96-0.88C538.02,216.36,541.49,219.75,541.52,223.93z"/>
				<path class="st9" d="M541.68,240.84l0.33,36.24c0.04,4.18-3.36,7.63-7.54,7.66l-95.96,0.88c-4.19,0.04-7.64-3.35-7.68-7.52
					l-0.33-39.76l58.2,29.83L541.68,240.84z"/>
			</g>
			<polygon class="st10" points="430.5,238.34 467.22,257.23 430.83,279.51 			"/>
			<polygon class="st10" points="541.37,241.16 506.76,259.34 541.74,278.1 			"/>
		</g>
	</g>
	<path class="st19" d="M335.12,93.73h-47.6c-3.22,0-5.85-2.63-5.85-5.85l0,0c0-3.22,2.63-5.85,5.85-5.85h47.6
		c3.22,0,5.85,2.63,5.85,5.85l0,0C340.97,91.1,338.34,93.73,335.12,93.73z"/>
	<g>
		<path class="st16" d="M360.28,207.51l14.3,30.65c2.24,4.8,0.51,10.23-3.85,12.07c-4.36,1.84-9.75-0.57-11.99-5.37l-14.3-30.65
			c-1.35-2.9-1.25-6.03,0-8.46c0.01-0.02,0.02-0.03,0.03-0.05c0.69-1.32,1.71-2.43,3.03-3.18l0.01,0c0.25-0.14,0.51-0.27,0.78-0.38
			c2.18-0.92,4.62-0.78,6.79,0.2c0.49,0.22,0.96,0.48,1.41,0.78C358.07,204.15,359.41,205.65,360.28,207.51z"/>
		<path class="st11" d="M329.06,374.2L329.06,374.2c-3.55-28.38,8.29-44.43,8.29-44.43l-28.6-50.81l29.55-8.14l8.88-2.45l0.26,3.79
			l3.71,54.63l-6.11,47.62l-5.92,41.57C332.74,397.16,330.37,384.58,329.06,374.2z"/>
		<path class="st17" d="M302.94,274.29l-8,56.76c0,0-24.4-9.59-56.35,18.27l66.02-6.93l33.91-54.56L302.94,274.29z"/>
		<path class="st16" d="M299.58,289.65l0.04,0c4.63-0.4,9.65-0.73,14.85-1c5.15-0.27,10.45-0.49,15.65-0.67l0.01,0
			c6.41-0.23,12.67-0.4,18.34-0.54c0.06-0.34,0.13-0.68,0.19-1.05l0-0.01c0,0,0,0,0-0.01c0.52-2.94,0.97-6.66,1.39-10.76
			c1.22-11.83,2.21-26.75,3.74-34.63c0.77-3.92,1.66-8,2.4-12.08c0.19-1.03,0.38-2.06,0.55-3.09c0.21-1.27,0.39-2.53,0.53-3.78
			c0.07-0.56,0.13-1.14,0.2-1.71c0.04-0.42,0.08-0.83,0.11-1.25c0.31-3.98,0.25-7.8-0.5-11.33c-0.23-1.09-0.51-2.13-0.88-3.15
			c-1.9-5.27-5.71-9.62-12.64-12.39l-0.01,0c-0.07-0.02-0.14-0.05-0.21-0.07c-0.08-0.04-0.17-0.07-0.26-0.11
			c-0.74-0.28-1.51-0.54-2.31-0.79c-0.7-0.22-1.4-0.4-2.1-0.55c-0.74-0.16-1.46-0.28-2.2-0.37l-0.02,0
			c-1.71-0.22-3.39-0.25-5.01-0.1c-1.77,0.15-3.46,0.51-5.03,1.07c-0.38,0.12-0.75,0.26-1.11,0.41c-0.48,0.2-0.95,0.42-1.4,0.66
			c-0.59,0.31-1.17,0.66-1.71,1.03c-1.03,0.7-1.96,1.49-2.77,2.38c-1.74,1.93-2.98,4.3-3.5,7.04c-0.45,1.53-1.12,4.51-1.94,8.49
			c-0.2,1.04-0.43,2.14-0.67,3.3c-0.4,2.01-0.83,4.2-1.27,6.51c-0.34,1.76-0.7,3.6-1.06,5.49c-0.19,1.02-0.38,2.05-0.58,3.09
			c-0.38,2.03-0.77,4.12-1.17,6.24c-0.64,3.47-1.3,7.03-1.95,10.58c-2.27,12.46-4.47,24.83-5.93,33.11
			C300.26,285.75,299.58,289.65,299.58,289.65z"/>
		<path class="st20" d="M340.83,182.02c-0.07-0.63-0.15-1.29-0.25-1.99l-4.19,0.24c0.03,0.43,0.06,0.83,0.1,1.22
			C337.93,181.64,339.38,181.82,340.83,182.02z"/>
		<path class="st20" d="M311.77,221.1l45.59-0.77l-0.11-6.49l-44.2,0.75C312.65,216.59,312.22,218.78,311.77,221.1z"/>
		<path class="st20" d="M313.48,229.62L356,228.9c0.17-1.03,0.35-2.06,0.5-3.08l-42.48,0.72
			C313.84,227.55,313.66,228.58,313.48,229.62z"/>
		<path class="st21" d="M339.24,423.22l11.32-0.19c1.99-0.03,3.59-1.69,3.55-3.67l0,0c-0.03-1.99-1.69-3.59-3.67-3.55l-11.32,0.19
			c-1.99,0.03-3.59,1.69-3.55,3.67l0,0C335.6,421.65,337.26,423.25,339.24,423.22z"/>
		<path class="st21" d="M239.08,348.94l2.07,11.14c0.36,1.95,2.26,3.26,4.21,2.89l0,0c1.95-0.36,3.26-2.26,2.89-4.21l-2.07-11.14
			c-0.36-1.95-2.26-3.26-4.21-2.89l0,0C240.02,345.09,238.71,346.98,239.08,348.94z"/>
		<path class="st22" d="M341.08,184.58c-0.09-1.11-0.26-2.76-0.5-4.55l-4.19,0.24c0.08,1.07,0.16,2.04,0.22,2.77
			c0.29,4.23-0.31,7.96-1.25,11c0.02,0.1,0.04,0.21,0.06,0.31c1.03-2,2.35-3.21,3.84-3.29c1.51-0.09,3.02,0.98,4.36,2.91
			C342.04,190.42,341.23,186.44,341.08,184.58z"/>
		<path class="st22" d="M339.97,199.55c-0.44,0.02-0.89,0-1.31-0.09c-0.01,0-0.03-0.01-0.04-0.01c-2.04-0.45-3.64-2.08-3.8-4.13
			c-0.08-1.16,0.32-2.24,1.02-3.09c0.68-0.8,1.64-1.38,2.78-1.59c0.21-0.04,0.44-0.06,0.66-0.08c1.28-0.08,2.49,0.33,3.41,1.05
			c0.21,0.16,0.39,0.33,0.57,0.53c0.66,0.71,1.09,1.63,1.16,2.63C344.63,197.26,342.63,199.4,339.97,199.55z"/>
		<polygon class="st22" points="371.09,281.71 376.18,282.1 376.05,296.14 371.41,303.72 367.76,303.25 370.15,294.86 
			369.32,287.79 367.21,291.25 366.5,296.81 364.49,297.02 365.15,288.78 		"/>
		<g>
			<path class="st22" d="M376.18,243.29c-0.59-5.65-5.18-9.75-10.25-9.14c-5.07,0.61-8.7,5.68-8.11,11.33
				c0.17,1.6,0.66,3.06,1.39,4.34l-0.03,0.01l11.92,31.87l5.1,0.4l-0.02-36.4C376.25,244.92,376.26,244.11,376.18,243.29z"/>
		</g>
		<path class="st23" d="M341.91,166.09l-4.06,2.53c-0.31,0.19-0.74,0.11-0.95-0.18l-0.21-0.29c-0.21-0.29-0.13-0.69,0.18-0.89
			l4.06-2.53c0.31-0.19,0.74-0.11,0.95,0.18l0.21,0.29C342.3,165.49,342.22,165.9,341.91,166.09z"/>
		<path class="st22" d="M350.7,176.84l-0.48,0.03c-1.04,0.06-1.96-0.69-2.03-1.66l-0.26-3.42c-0.07-0.97,0.72-1.82,1.76-1.88
			l0.48-0.03c1.04-0.06,1.96,0.69,2.03,1.66l0.26,3.42C352.54,175.93,351.74,176.78,350.7,176.84z"/>
		<path class="st22" d="M334.63,177.98l-0.48,0.03c-1.04,0.06-1.96-0.69-2.03-1.66l-0.26-3.42c-0.07-0.98,0.72-1.82,1.76-1.88
			l0.48-0.03c1.04-0.06,1.96,0.69,2.03,1.66l0.26,3.42C336.46,177.07,335.67,177.92,334.63,177.98z"/>
		<path class="st24" d="M345.63,185.14c-3.99,0.94-9.11-1.04-9.97-5.79l-1.08-14.28c-0.29-3.82,2.81-7.13,6.9-7.37
			c4.08-0.23,7.66,2.7,7.95,6.52c0,0,1.08,14.21,1.08,14.28C350.8,182.27,348.5,184.46,345.63,185.14z"/>
		<path class="st22" d="M345.63,185.14c-3.99,0.94-9.11-1.04-9.97-5.79l-1.08-14.28c-0.29-3.82,2.81-7.13,6.9-7.37
			c4.08-0.23,7.66,2.7,7.95,6.52c0,0,1.08,14.21,1.08,14.28C350.8,182.27,348.5,184.46,345.63,185.14z"/>
		<path class="st25" d="M335.27,174.19l0.39,5.16c0.86,4.75,5.97,6.73,9.97,5.79c2.87-0.68,5.17-2.87,4.88-6.64
			c0-0.02-0.15-1.92-0.33-4.31H335.27z"/>
		<path class="st20" d="M342.27,176.72c0.38,1.57,1.63,2.68,3.04,2.57c1.41-0.1,2.51-1.38,2.69-2.99L342.27,176.72z"/>
		<path class="st25" d="M338.11,176.69c0.32-2.5,0.91-5.17,0.52-7.74c-0.24-1.62-1.27-3.3-1.87-4.81c2.11-0.25,4.45,0.73,6.67,0.66
			c3.38-0.11,6.07-0.96,9.16-2.4c2.33-1.09,3.41-2.72,5.2-4.42c2.01-1.91,1.97-4.52,1.74-7.25c-0.39-4.74-6.27-8.59-9.62-4.12
			c-2.44,3.26-1.72,8.46-6.54,8.83c-2.52,0.2-5.03-0.91-5.97,2.18c-2.19,0.31-3.68-0.64-4.4,2.07c-0.57,2.15,0.22,4.38,0.7,6.47
			c0.73,3.16,1.74,6.94,1.55,10.16C336.29,176.68,337.21,177.48,338.11,176.69z"/>
		<g>
			<g>
				<path class="st8" d="M330.3,212.66l26.48,41.77c2.08,3.28,1.09,7.68-2.2,9.76l-75.41,47.8c-3.29,2.09-7.68,1.11-9.76-2.18
					l-26.48-41.77c-2.08-3.28-1.1-7.67,2.2-9.76l75.41-47.8C323.82,208.41,328.22,209.38,330.3,212.66z"/>
				<path class="st9" d="M338.73,225.96l18.05,28.48c2.08,3.28,1.09,7.68-2.2,9.76l-75.41,47.8c-3.29,2.09-7.68,1.11-9.76-2.18
					l-19.78-31.26l60.64-4.99L338.73,225.96z"/>
			</g>
			<polygon class="st10" points="249.63,278.56 287.93,275.45 270.1,310.93 			"/>
			<polygon class="st10" points="338.64,226.36 320.21,257.72 357.07,255.38 			"/>
		</g>
		<path class="st16" d="M320.46,209.64l-18.58,30.54c-2.91,4.78-8.29,6.74-11.96,4.37c-3.67-2.38-4.29-8.23-1.39-13.01L307.12,201
			c1.76-2.89,4.42-4.74,7.06-5.24c0.02,0,0.04-0.01,0.06-0.01c1.44-0.26,2.86-0.12,4.14,0.48l0.01,0.01
			c0.24,0.12,0.47,0.24,0.7,0.39c1.83,1.19,2.91,3.25,3.16,5.6c0.06,0.53,0.07,1.07,0.04,1.63
			C322.19,205.77,321.59,207.79,320.46,209.64z"/>
		<g>
			<path class="st22" d="M301.11,230.99c-4.74-2.99-10.78-1.96-13.48,2.32c-2.7,4.27-1.05,10.16,3.69,13.16
				c1.34,0.85,2.78,1.36,4.22,1.58l-0.01,0.03l30.47,9.11l2.68-4.24l-25.72-20.47C302.42,231.93,301.8,231.43,301.11,230.99z"/>
		</g>
		<polygon class="st22" points="327.02,251.55 324.96,256.99 338.95,264.07 348.71,263.19 350,259.2 340.53,257.34 333.91,252.85 
			338.36,252.47 344.22,254.59 345.4,252.64 336.91,249.08 		"/>
	</g>
</g>
<g id="DESIGNED_BY_FREEPIK" class="st0">
	<g class="st26">
		<g id="XMLID_319_">
			<g id="XMLID_338_">
				<path id="XMLID_346_" class="st27" d="M385.1,466.28c-0.43,0.44-0.8,0.93-1.11,1.45l-0.47-0.24c-0.07-0.3-0.35-0.5-0.66-0.47
					c-0.33,0.04-0.57,0.34-0.53,0.67c0.04,0.33,0.34,0.57,0.67,0.53c0.07-0.01,0.13-0.03,0.18-0.05l0.45,0.23
					c-0.25,0.55-0.43,1.14-0.54,1.74l0.75,0.13c0.23-1.31,0.85-2.51,1.79-3.47L385.1,466.28z"/>
				<path id="XMLID_345_" class="st27" d="M390.59,463.98c-0.17,0-0.34,0.01-0.51,0.02l-0.07-0.63c0.19-0.15,0.3-0.39,0.27-0.64
					c-0.05-0.39-0.4-0.67-0.8-0.63c-0.39,0.05-0.67,0.4-0.63,0.8c0.03,0.25,0.19,0.46,0.4,0.56l0.07,0.62
					c-0.71,0.12-1.4,0.33-2.06,0.65l0.33,0.68c0.93-0.45,1.94-0.67,3-0.67c0.5,0,0.99,0.05,1.48,0.16l0.16-0.74
					C391.69,464.04,391.14,463.98,390.59,463.98z"/>
				<path id="XMLID_344_" class="st27" d="M397.19,466.53c0.33-0.04,0.57-0.34,0.53-0.67c-0.04-0.33-0.34-0.57-0.67-0.53
					c-0.31,0.04-0.54,0.3-0.53,0.61l-0.42,0.36c-0.42-0.43-0.89-0.81-1.41-1.14l-0.4,0.64c1.13,0.71,2.02,1.73,2.56,2.93l0.69-0.31
					c-0.25-0.55-0.57-1.07-0.94-1.54l0.4-0.35C397.06,466.53,397.13,466.54,397.19,466.53z"/>
				<path id="XMLID_343_" class="st27" d="M390.04,474.19c-0.39,0.02-0.77,0.03-1.16,0.03c-0.88,0-1.73-0.06-2.48-0.18
					c-0.39-0.06-0.85-0.15-1.27-0.29c1.05,1.86,3.07,3.13,5.39,3.13c2.86,0,5.26-1.92,5.95-4.5c-0.68,0.45-1.51,0.83-2.46,1.12
					C392.84,473.87,391.46,474.1,390.04,474.19z"/>
				<path id="XMLID_339_" class="st27" d="M390.59,465.5c-3.35,0-6.08,2.67-6.08,5.94c0,0.43,0.05,0.85,0.14,1.26
					c0.67,0.48,2.71,0.89,5.35,0.73c2.88-0.17,5.3-0.96,6.67-2.16c-0.01-0.2-0.02-0.39-0.05-0.58
					C396.24,467.73,393.65,465.5,390.59,465.5z M388.43,472.01c-1.02,0-1.85-0.83-1.85-1.85c0-1.02,0.83-1.85,1.85-1.85
					c1.02,0,1.85,0.83,1.85,1.85C390.28,471.18,389.45,472.01,388.43,472.01z M393.17,471.1c-0.75,0-1.36-0.61-1.36-1.36
					c0-0.75,0.61-1.36,1.36-1.36c0.75,0,1.36,0.61,1.36,1.36C394.53,470.49,393.92,471.1,393.17,471.1z"/>
			</g>
			<path id="XMLID_336_" class="st27" d="M406.6,467.36c-0.29-0.12-0.81-0.31-1.38-0.24c-0.55,0.07-0.84,0.34-0.84,1.01V469h2.23
				v1.72h-2.23v5.45h-1.93v-5.45h-1.34V469h1.34v-0.89c0-1.68,0.9-2.78,2.57-2.78c0.64,0,1.16,0.12,1.59,0.31L406.6,467.36z"/>
			<path id="XMLID_334_" class="st27" d="M411.3,470.7c-0.18-0.03-0.36-0.05-0.53-0.05c-0.9,0-1.51,0.55-1.51,1.61v3.91h-1.93V469
				h1.87v0.78c0.45-0.67,1.14-0.98,2.02-0.98c0.41,0,0.85,0.13,1.09,0.34L411.3,470.7z"/>
			<path id="XMLID_331_" class="st27" d="M418.97,472.57c0,0.22-0.01,0.49-0.04,0.65h-5.08c0.21,1.04,0.93,1.49,1.84,1.49
				c0.62,0,1.3-0.25,1.81-0.69l1.13,1.24c-0.81,0.75-1.85,1.09-3.06,1.09c-2.2,0-3.72-1.5-3.72-3.75c0-2.26,1.48-3.8,3.63-3.8
				C417.54,468.81,418.96,470.34,418.97,472.57z M413.85,471.91h3.18c-0.18-0.92-0.73-1.44-1.56-1.44
				C414.55,470.47,414.02,471.02,413.85,471.91z"/>
			<path id="XMLID_328_" class="st27" d="M426.62,472.57c0,0.22-0.02,0.49-0.04,0.65h-5.08c0.21,1.04,0.93,1.49,1.84,1.49
				c0.62,0,1.3-0.25,1.81-0.69l1.13,1.24c-0.81,0.75-1.85,1.09-3.06,1.09c-2.2,0-3.72-1.5-3.72-3.75c0-2.26,1.48-3.8,3.63-3.8
				C425.2,468.81,426.61,470.34,426.62,472.57z M421.5,471.91h3.18c-0.18-0.92-0.73-1.44-1.56-1.44
				C422.21,470.47,421.67,471.02,421.5,471.91z"/>
			<path id="XMLID_325_" class="st27" d="M434.96,472.58c0,2.15-1.49,3.77-3.47,3.77c-0.96,0-1.64-0.38-2.11-0.93v3.71h-1.92V469
				h1.89v0.79c0.47-0.58,1.15-0.98,2.14-0.98C433.47,468.81,434.96,470.43,434.96,472.58z M429.29,472.58
				c0,1.13,0.75,1.98,1.84,1.98c1.14,0,1.85-0.88,1.85-1.98c0-1.1-0.71-1.98-1.85-1.98C430.03,470.61,429.29,471.45,429.29,472.58z"
				/>
			<path id="XMLID_322_" class="st27" d="M438.07,466.65c0,0.7-0.54,1.23-1.24,1.23c-0.7,0-1.23-0.53-1.23-1.23
				c0-0.7,0.53-1.24,1.23-1.24C437.53,465.41,438.07,465.96,438.07,466.65z M437.81,476.17h-1.93V469h1.93V476.17z"/>
			<path id="XMLID_320_" class="st27" d="M441.03,471.55l2.7-2.55h2.37l-3.48,3.38l3.5,3.8h-2.38l-2.72-2.9v2.9h-1.93v-10.66h1.93
				V471.55z"/>
		</g>
		<g>
			<path class="st27" d="M309.41,476.11v-1.05c-0.53,0.72-1.39,1.23-2.39,1.23c-1.85,0-3.15-1.41-3.15-3.71
				c0-2.26,1.29-3.72,3.15-3.72c0.95,0,1.82,0.47,2.39,1.25v-3.76h1.1v9.77H309.41z M309.41,474.19v-3.21
				c-0.4-0.62-1.24-1.14-2.12-1.14c-1.42,0-2.27,1.17-2.27,2.74c0,1.57,0.85,2.72,2.27,2.72
				C308.17,475.3,309.02,474.8,309.41,474.19z"/>
			<path class="st27" d="M311.93,472.56c0-2.05,1.46-3.71,3.49-3.71c2.14,0,3.4,1.67,3.4,3.79v0.28h-5.73
				c0.09,1.33,1.03,2.45,2.55,2.45c0.81,0,1.63-0.32,2.18-0.89l0.53,0.72c-0.7,0.7-1.65,1.08-2.81,1.08
				C313.44,476.28,311.93,474.77,311.93,472.56z M315.4,469.76c-1.51,0-2.26,1.27-2.31,2.36h4.64
				C317.72,471.07,317.01,469.76,315.4,469.76z"/>
			<path class="st27" d="M319.61,475.17l0.57-0.79c0.47,0.54,1.36,1.01,2.33,1.01c1.08,0,1.67-0.51,1.67-1.22
				c0-1.71-4.38-0.66-4.38-3.28c0-1.1,0.95-2.04,2.64-2.04c1.2,0,2.05,0.45,2.62,1.03l-0.51,0.76c-0.42-0.51-1.2-0.89-2.11-0.89
				c-0.97,0-1.57,0.48-1.57,1.11c0,1.55,4.38,0.53,4.38,3.28c0,1.19-0.95,2.14-2.78,2.14C321.31,476.28,320.32,475.93,319.61,475.17
				z"/>
			<path class="st27" d="M326.48,467.29c0-0.41,0.34-0.75,0.73-0.75c0.41,0,0.75,0.34,0.75,0.75c0,0.41-0.34,0.73-0.75,0.73
				C326.81,468.02,326.48,467.7,326.48,467.29z M326.67,476.11v-7.07h1.1v7.07H326.67z"/>
			<path class="st27" d="M329.58,477.92l0.56-0.82c0.59,0.7,1.29,0.97,2.3,0.97c1.17,0,2.27-0.57,2.27-2.12v-1.01
				c-0.51,0.72-1.38,1.26-2.37,1.26c-1.85,0-3.15-1.38-3.15-3.66c0-2.27,1.29-3.68,3.15-3.68c0.95,0,1.8,0.47,2.37,1.25v-1.07h1.1
				v6.87c0,2.34-1.64,3.08-3.37,3.08C331.24,478.98,330.42,478.74,329.58,477.92z M334.71,474.07v-3.09
				c-0.38-0.62-1.23-1.14-2.11-1.14c-1.42,0-2.27,1.13-2.27,2.7c0,1.55,0.85,2.7,2.27,2.7
				C333.48,475.23,334.33,474.69,334.71,474.07z"/>
			<path class="st27" d="M342.41,476.11v-4.63c0-1.24-0.63-1.64-1.58-1.64c-0.86,0-1.68,0.53-2.09,1.1v5.17h-1.1v-7.07h1.1v1.03
				c0.5-0.59,1.46-1.2,2.52-1.2c1.48,0,2.26,0.75,2.26,2.28v4.97H342.41z"/>
			<path class="st27" d="M344.93,472.56c0-2.05,1.46-3.71,3.49-3.71c2.14,0,3.4,1.67,3.4,3.79v0.28h-5.73
				c0.09,1.33,1.03,2.45,2.55,2.45c0.81,0,1.63-0.32,2.18-0.89l0.53,0.72c-0.7,0.7-1.66,1.08-2.81,1.08
				C346.44,476.28,344.93,474.77,344.93,472.56z M348.4,469.76c-1.51,0-2.26,1.27-2.31,2.36h4.64
				C350.72,471.07,350.02,469.76,348.4,469.76z"/>
			<path class="st27" d="M358.35,476.11v-1.05c-0.53,0.72-1.39,1.23-2.39,1.23c-1.85,0-3.15-1.41-3.15-3.71
				c0-2.26,1.29-3.72,3.15-3.72c0.95,0,1.82,0.47,2.39,1.25v-3.76h1.1v9.77H358.35z M358.35,474.19v-3.21
				c-0.4-0.62-1.25-1.14-2.12-1.14c-1.42,0-2.27,1.17-2.27,2.74c0,1.57,0.85,2.72,2.27,2.72C357.1,475.3,357.95,474.8,358.35,474.19
				z"/>
			<path class="st27" d="M364.69,476.11v-9.77h1.1v3.76c0.57-0.78,1.42-1.25,2.39-1.25c1.85,0,3.15,1.46,3.15,3.72
				c0,2.3-1.3,3.71-3.15,3.71c-1,0-1.86-0.51-2.39-1.23v1.05H364.69z M367.9,475.3c1.44,0,2.29-1.16,2.29-2.72
				c0-1.57-0.85-2.74-2.29-2.74c-0.86,0-1.73,0.53-2.11,1.14v3.21C366.17,474.8,367.04,475.3,367.9,475.3z"/>
			<path class="st27" d="M372.53,477.88c0.16,0.07,0.42,0.12,0.6,0.12c0.48,0,0.81-0.16,1.05-0.75l0.47-1.07l-2.96-7.15h1.19
				l2.36,5.8l2.34-5.8h1.2l-3.54,8.51c-0.42,1.03-1.14,1.42-2.08,1.44c-0.23,0-0.6-0.04-0.81-0.1L372.53,477.88z"/>
		</g>
	</g>
</g>
</svg>
